<?xml version="1.0" encoding="utf-8"?>
<!DOCTYPE svg PUBLIC "-//W3C//DTD SVG 1.1//EN" "http://www.w3.org/Graphics/SVG/1.1/DTD/svg11.dtd">
<svg  version="1.1" id="Layer_1" xmlns="http://www.w3.org/2000/svg" xmlns:xlink="http://www.w3.org/1999/xlink" width="513.185" height="454.934"
	 viewBox="0 0 513.185 454.934" overflow="visible" enable-background="new 0 0 513.185 454.934" xml:space="preserve">
<polygon fill="none" stroke="#000000" points="153,198 225,54 297,198 369,54 225,198 297,54 "/>
<line fill="none" stroke="#000000" x1="369" y1="54" x2="153" y2="198"/>
<polyline fill="none" stroke="#000000" points="297,54 369,198 225,54 "/>
<polyline fill="none" stroke="#000000" points="369,198 153,54 225,198 "/>
<line fill="none" stroke="#000000" x1="297" y1="198" x2="153" y2="54"/>
<path fill="#FFFFFF" stroke="#000000" d="M396,213c0,6.627-5.373,12-12,12h-30c-6.627,0-12-5.373-12-12v-21c0-6.627,5.373-12,12-12
	h30c6.627,0,12,5.373,12,12V213z"/>
<path fill="#FFFFFF" stroke="#000000" d="M324,213c0,6.627-5.373,12-12,12h-30c-6.627,0-12-5.373-12-12v-21c0-6.627,5.373-12,12-12
	h30c6.627,0,12,5.373,12,12V213z"/>
<path fill="#FFFFFF" stroke="#000000" d="M252,213c0,6.627-5.373,12-12,12h-30c-6.627,0-12-5.373-12-12v-21c0-6.627,5.373-12,12-12
	h30c6.627,0,12,5.373,12,12V213z"/>
<path fill="#FFFFFF" stroke="#000000" d="M180,213c0,6.627-5.373,12-12,12h-30c-6.627,0-12-5.373-12-12v-21c0-6.627,5.373-12,12-12
	h30c6.627,0,12,5.373,12,12V213z"/>
<text transform="matrix(1 0 0 1 132 207)"><tspan x="0" y="0" font-family="Liberation Serif" font-style="italic" font-size="48">a</tspan><tspan x="24" y="10" font-family="Liberation Serif" font-style="normal" font-size="36">1</tspan></text>
<text transform="matrix(1 0 0 1 204 207)"><tspan x="0" y="0" font-family="Liberation Serif" font-style="italic" font-size="48">a</tspan><tspan x="24" y="10" font-family="Liberation Serif" font-style="normal" font-size="36">2</tspan></text>

<text transform="matrix(1 0 0 1 276 207)"><tspan x="0" y="0" font-family="Liberation Serif" font-style="italic" font-size="48">a</tspan><tspan x="24" y="10" font-family="Liberation Serif" font-style="normal" font-size="36">3</tspan></text>
<text transform="matrix(1 0 0 1 348 207)"><tspan x="0" y="0" font-family="Liberation Serif" font-style="italic" font-size="48">a</tspan><tspan x="24" y="10" font-family="Liberation Serif" font-style="normal" font-size="36">4</tspan></text>
<path fill="#FFFFFF" stroke="#000000" d="M396,60c0,6.627-5.373,12-12,12h-30c-6.627,0-12-5.373-12-12V21c0-6.627,5.373-12,12-12h30
	c6.627,0,12,5.373,12,12V60z"/>
<path fill="#FFFFFF" stroke="#000000" d="M324,60c0,6.627-5.373,12-12,12h-30c-6.627,0-12-5.373-12-12V21c0-6.627,5.373-12,12-12h30
	c6.627,0,12,5.373,12,12V60z"/>
<path fill="#FFFFFF" stroke="#000000" d="M252,60c0,6.627-5.373,12-12,12h-30c-6.627,0-12-5.373-12-12V21c0-6.627,5.373-12,12-12h30
	c6.627,0,12,5.373,12,12V60z"/>
<path fill="#FFFFFF" stroke="#000000" d="M180,60c0,6.627-5.373,12-12,12h-30c-6.627,0-12-5.373-12-12V21c0-6.627,5.373-12,12-12h30
	c6.627,0,12,5.373,12,12V60z"/>
<text transform="matrix(1 0 0 1 132 54)"><tspan x="0" y="0" font-family="Liberation Serif" font-style="italic" font-size="48">b</tspan><tspan x="24" y="10" font-family="Liberation Serif" font-style="normal" font-size="36">1</tspan></text>
<text transform="matrix(1 0 0 1 204 54)"><tspan x="0" y="0" font-family="Liberation Serif" font-style="italic" font-size="48">b</tspan><tspan x="24" y="10" font-family="Liberation Serif" font-style="normal" font-size="36">2</tspan></text>
<text transform="matrix(1 0 0 1 276 54)"><tspan x="0" y="0" font-family="Liberation Serif" font-style="italic" font-size="48">b</tspan><tspan x="24" y="10" font-family="Liberation Serif" font-style="normal" font-size="36">3</tspan></text>

<text transform="matrix(1 0 0 1 348 54)"><tspan x="0" y="0" font-family="Liberation Serif" font-style="italic" font-size="48">b</tspan><tspan x="24" y="10" font-family="Liberation Serif" font-style="normal" font-size="36">4</tspan></text>
<text transform="matrix(1 0 0 1 8.8154 297)"><tspan x="0" y="0" font-family="Liberation Serif" font-style="italic" font-size="36">a</tspan><tspan x="18" y="7.5" font-family="Liberation Serif" font-style="normal" font-size="27">2 </tspan><tspan x="38.25" y="0" font-family="Liberation Serif" font-style="normal" font-size="36">&lt; </tspan><tspan x="67.553" y="0" font-family="Liberation Serif" font-style="italic" font-size="36">a</tspan><tspan x="85.553" y="7.5" font-family="Liberation Serif" font-style="normal" font-size="27">3 </tspan><tspan x="105.803" y="0" font-family="Liberation Serif" font-style="normal" font-size="36">&lt; </tspan><tspan x="135.105" y="0" font-family="Liberation Serif" font-style="italic" font-size="36">a</tspan><tspan x="153.105" y="7.5" font-family="Liberation Serif" font-style="normal" font-size="27">4 </tspan><tspan x="173.355" y="0" font-family="Liberation Serif" font-style="normal" font-size="36">&lt; </tspan><tspan x="202.658" y="0" font-family="Liberation Serif" font-style="italic" font-size="36">b</tspan><tspan x="220.658" y="7.5" font-family="Liberation Serif" font-style="normal" font-size="27">1 </tspan><tspan x="240.908" y="0" font-family="Liberation Serif" font-style="normal" font-size="36">&lt; </tspan><tspan x="270.211" y="0" font-family="Liberation Serif" font-style="italic" font-size="36">a</tspan><tspan x="288.211" y="7.5" font-family="Liberation Serif" font-style="normal" font-size="27">1 </tspan><tspan x="308.461" y="0" font-family="Liberation Serif" font-style="normal" font-size="36">&lt; </tspan><tspan x="337.764" y="0" font-family="Liberation Serif" font-style="italic" font-size="36">b</tspan><tspan x="355.764" y="7.5" font-family="Liberation Serif" font-style="normal" font-size="27">2 </tspan><tspan x="376.014" y="0" font-family="Liberation Serif" font-style="normal" font-size="36">&lt; </tspan><tspan x="405.316" y="0" font-family="Liberation Serif" font-style="italic" font-size="36">b</tspan><tspan x="423.316" y="7.5" font-family="Liberation Serif" font-style="normal" font-size="27">3 </tspan><tspan x="443.566" y="0" font-family="Liberation Serif" font-style="normal" font-size="36">&lt; </tspan><tspan x="472.869" y="0" font-family="Liberation Serif" font-style="italic" font-size="36">b</tspan><tspan x="490.869" y="7.5" font-family="Liberation Serif" font-style="normal" font-size="27">4</tspan></text>

<text transform="matrix(1 0 0 1 8.8154 342)"><tspan x="0" y="0" font-family="Liberation Serif" font-style="italic" font-size="36">a</tspan><tspan x="18" y="7.5" font-family="Liberation Serif" font-style="normal" font-size="27">1 </tspan><tspan x="38.25" y="0" font-family="Liberation Serif" font-style="normal" font-size="36">&lt; </tspan><tspan x="67.553" y="0" font-family="Liberation Serif" font-style="italic" font-size="36">a</tspan><tspan x="85.553" y="7.5" font-family="Liberation Serif" font-style="normal" font-size="27">3 </tspan><tspan x="105.803" y="0" font-family="Liberation Serif" font-style="normal" font-size="36">&lt; </tspan><tspan x="135.105" y="0" font-family="Liberation Serif" font-style="italic" font-size="36">a</tspan><tspan x="153.105" y="7.5" font-family="Liberation Serif" font-style="normal" font-size="27">4 </tspan><tspan x="173.355" y="0" font-family="Liberation Serif" font-style="normal" font-size="36">&lt; </tspan><tspan x="202.658" y="0" font-family="Liberation Serif" font-style="italic" font-size="36">b</tspan><tspan x="220.658" y="7.5" font-family="Liberation Serif" font-style="normal" font-size="27">2 </tspan><tspan x="240.908" y="0" font-family="Liberation Serif" font-style="normal" font-size="36">&lt; </tspan><tspan x="270.211" y="0" font-family="Liberation Serif" font-style="italic" font-size="36">a</tspan><tspan x="288.211" y="7.5" font-family="Liberation Serif" font-style="normal" font-size="27">2 </tspan><tspan x="308.461" y="0" font-family="Liberation Serif" font-style="normal" font-size="36">&lt; </tspan><tspan x="337.764" y="0" font-family="Liberation Serif" font-style="italic" font-size="36">b</tspan><tspan x="355.764" y="7.5" font-family="Liberation Serif" font-style="normal" font-size="27">1 </tspan><tspan x="376.014" y="0" font-family="Liberation Serif" font-style="normal" font-size="36">&lt; </tspan><tspan x="405.316" y="0" font-family="Liberation Serif" font-style="italic" font-size="36">b</tspan><tspan x="423.316" y="7.5" font-family="Liberation Serif" font-style="normal" font-size="27">3 </tspan><tspan x="443.566" y="0" font-family="Liberation Serif" font-style="normal" font-size="36">&lt; </tspan><tspan x="472.869" y="0" font-family="Liberation Serif" font-style="italic" font-size="36">b</tspan><tspan x="490.869" y="7.5" font-family="Liberation Serif" font-style="normal" font-size="27">4</tspan></text>

<text transform="matrix(1 0 0 1 8.8154 387)"><tspan x="0" y="0" font-family="Liberation Serif" font-style="italic" font-size="36">a</tspan><tspan x="18" y="7.5" font-family="Liberation Serif" font-style="normal" font-size="27">1 </tspan><tspan x="38.25" y="0" font-family="Liberation Serif" font-style="normal" font-size="36">&lt; </tspan><tspan x="67.553" y="0" font-family="Liberation Serif" font-style="italic" font-size="36">a</tspan><tspan x="85.553" y="7.5" font-family="Liberation Serif" font-style="normal" font-size="27">2 </tspan><tspan x="105.803" y="0" font-family="Liberation Serif" font-style="normal" font-size="36">&lt; </tspan><tspan x="135.105" y="0" font-family="Liberation Serif" font-style="italic" font-size="36">a</tspan><tspan x="153.105" y="7.5" font-family="Liberation Serif" font-style="normal" font-size="27">4 </tspan><tspan x="173.355" y="0" font-family="Liberation Serif" font-style="normal" font-size="36">&lt; </tspan><tspan x="202.658" y="0" font-family="Liberation Serif" font-style="italic" font-size="36">b</tspan><tspan x="220.658" y="7.5" font-family="Liberation Serif" font-style="normal" font-size="27">3 </tspan><tspan x="240.908" y="0" font-family="Liberation Serif" font-style="normal" font-size="36">&lt; </tspan><tspan x="270.211" y="0" font-family="Liberation Serif" font-style="italic" font-size="36">a</tspan><tspan x="288.211" y="7.5" font-family="Liberation Serif" font-style="normal" font-size="27">3 </tspan><tspan x="308.461" y="0" font-family="Liberation Serif" font-style="normal" font-size="36">&lt; </tspan><tspan x="337.764" y="0" font-family="Liberation Serif" font-style="italic" font-size="36">b</tspan><tspan x="355.764" y="7.5" font-family="Liberation Serif" font-style="normal" font-size="27">1 </tspan><tspan x="376.014" y="0" font-family="Liberation Serif" font-style="normal" font-size="36">&lt; </tspan><tspan x="405.316" y="0" font-family="Liberation Serif" font-style="italic" font-size="36">b</tspan><tspan x="423.316" y="7.5" font-family="Liberation Serif" font-style="normal" font-size="27">2 </tspan><tspan x="443.566" y="0" font-family="Liberation Serif" font-style="normal" font-size="36">&lt; </tspan><tspan x="472.869" y="0" font-family="Liberation Serif" font-style="italic" font-size="36">b</tspan><tspan x="490.869" y="7.5" font-family="Liberation Serif" font-style="normal" font-size="27">4</tspan></text>

<text transform="matrix(1 0 0 1 8.8154 432)"><tspan x="0" y="0" font-family="Liberation Serif" font-style="italic" font-size="36">a</tspan><tspan x="18" y="7.5" font-family="Liberation Serif" font-style="normal" font-size="27">1 </tspan><tspan x="38.25" y="0" font-family="Liberation Serif" font-style="normal" font-size="36">&lt; </tspan><tspan x="67.553" y="0" font-family="Liberation Serif" font-style="italic" font-size="36">a</tspan><tspan x="85.553" y="7.5" font-family="Liberation Serif" font-style="normal" font-size="27">2 </tspan><tspan x="105.803" y="0" font-family="Liberation Serif" font-style="normal" font-size="36">&lt; </tspan><tspan x="135.105" y="0" font-family="Liberation Serif" font-style="italic" font-size="36">a</tspan><tspan x="153.105" y="7.5" font-family="Liberation Serif" font-style="normal" font-size="27">3 </tspan><tspan x="173.355" y="0" font-family="Liberation Serif" font-style="normal" font-size="36">&lt; </tspan><tspan x="202.658" y="0" font-family="Liberation Serif" font-style="italic" font-size="36">b</tspan><tspan x="220.658" y="7.5" font-family="Liberation Serif" font-style="normal" font-size="27">4 </tspan><tspan x="240.908" y="0" font-family="Liberation Serif" font-style="normal" font-size="36">&lt; </tspan><tspan x="270.211" y="0" font-family="Liberation Serif" font-style="italic" font-size="36">a</tspan><tspan x="288.211" y="7.5" font-family="Liberation Serif" font-style="normal" font-size="27">4 </tspan><tspan x="308.461" y="0" font-family="Liberation Serif" font-style="normal" font-size="36">&lt; </tspan><tspan x="337.764" y="0" font-family="Liberation Serif" font-style="italic" font-size="36">b</tspan><tspan x="355.764" y="7.5" font-family="Liberation Serif" font-style="normal" font-size="27">1 </tspan><tspan x="376.014" y="0" font-family="Liberation Serif" font-style="normal" font-size="36">&lt; </tspan><tspan x="405.316" y="0" font-family="Liberation Serif" font-style="italic" font-size="36">b</tspan><tspan x="423.316" y="7.5" font-family="Liberation Serif" font-style="normal" font-size="27">2 </tspan><tspan x="443.566" y="0" font-family="Liberation Serif" font-style="normal" font-size="36">&lt; </tspan><tspan x="472.869" y="0" font-family="Liberation Serif" font-style="italic" font-size="36">b</tspan><tspan x="490.869" y="7.5" font-family="Liberation Serif" font-style="normal" font-size="27">3</tspan></text>

<rect fill="none" width="513" height="450"/>
</svg>
